<?xml version="1.0" standalone="no"?>
<!DOCTYPE svg PUBLIC "-//W3C//DTD SVG 20010904//EN"
 "http://www.w3.org/TR/2001/REC-SVG-20010904/DTD/svg10.dtd">
<svg version="1.0" xmlns="http://www.w3.org/2000/svg"
 width="512.000000pt" height="512.000000pt" viewBox="0 0 512.000000 512.000000"
 preserveAspectRatio="xMidYMid meet">

<g transform="translate(0.000000,512.000000) scale(0.100000,-0.100000)"
fill="#0f0" stroke="none">
<path d="M2210 4829 c-439 -48 -849 -216 -1195 -489 -113 -89 -308 -290 -390
-402 l-70 -96 -46 5 c-65 8 -146 -19 -198 -64 -110 -94 -123 -266 -28 -379
l26 -31 -30 -89 c-145 -430 -156 -907 -32 -1339 68 -238 166 -452 297 -648
l66 -98 -27 -52 c-38 -74 -44 -189 -13 -270 26 -69 94 -142 165 -177 43 -21
64 -25 145 -25 84 0 102 3 148 27 l52 27 111 -75 c122 -81 325 -184 459 -232
451 -163 906 -185 1370 -66 512 131 978 455 1285 894 55 78 56 78 88 69 17 -5
68 -9 112 -9 291 1 504 266 444 552 -25 119 -129 260 -227 306 -29 14 -33 20
-28 45 18 89 28 280 23 427 -16 456 -169 901 -432 1259 l-46 62 28 57 c23 48
28 70 28 137 0 71 -4 88 -33 147 -59 119 -162 183 -297 183 -71 0 -89 -4 -144
-31 l-63 -32 -92 60 c-245 159 -544 273 -861 329 -138 24 -455 34 -595 18z
m150 -583 l0 -444 -32 -13 c-45 -18 -106 -75 -128 -120 l-19 -36 -88 14 c-136
21 -301 67 -441 123 -70 27 -133 54 -141 59 -12 8 -9 22 19 83 156 342 396
617 628 720 45 21 163 56 190 57 9 1 12 -94 12 -443z m301 408 c192 -63 383
-230 544 -477 55 -85 175 -314 175 -335 0 -10 -98 -54 -232 -103 -91 -33 -245
-73 -343 -89 -38 -6 -80 -13 -92 -16 -18 -3 -26 3 -42 34 -23 46 -84 102 -129
121 l-32 13 0 445 0 445 38 -6 c20 -4 71 -18 113 -32z m-886 -121 c-138 -137
-270 -331 -365 -537 -22 -47 -42 -86 -45 -86 -21 0 -281 186 -319 229 -22 25
-26 21 119 131 117 88 214 146 358 216 102 48 296 124 321 124 5 0 -26 -35
-69 -77z m1410 27 c123 -46 282 -124 397 -196 l87 -55 -17 -37 c-21 -49 -21
-184 0 -233 l16 -35 -75 -48 c-41 -26 -76 -46 -78 -44 -2 2 -33 62 -69 134
-106 212 -226 381 -359 507 -57 53 -59 58 -32 51 17 -4 75 -23 130 -44z m865
-239 c59 -32 93 -83 98 -149 11 -149 -128 -245 -264 -183 -83 38 -125 141 -95
233 32 97 169 149 261 99z m-3037 -345 c86 -69 261 -189 289 -198 9 -3 0 -43
-30 -144 -51 -167 -86 -320 -108 -469 -22 -147 -23 -151 -75 -159 -146 -23
-283 -147 -335 -304 l-23 -67 -212 -3 -212 -2 6 97 c11 167 67 429 118 551 13
31 18 34 66 37 208 15 320 241 207 417 l-24 37 59 78 c58 77 168 203 177 203
3 0 46 -33 97 -74z m2790 -110 c23 -14 71 -30 107 -36 64 -12 99 -8 205 24 16
5 30 -7 71 -66 104 -147 206 -343 268 -518 58 -161 116 -453 116 -585 l0 -55
-402 2 -403 3 -2 65 c-12 325 -69 665 -158 949 -20 62 -33 117 -28 122 9 9
176 119 181 119 2 0 22 -11 45 -24z m-3244 -192 c62 -52 58 -147 -8 -191 -60
-40 -126 -26 -168 36 -27 40 -29 71 -7 117 32 67 126 86 183 38z m929 7 c135
-68 390 -146 575 -176 l107 -18 21 -46 c25 -57 79 -113 130 -136 33 -16 39
-23 39 -50 0 -31 -1 -32 -67 -45 -37 -7 -108 -33 -157 -58 -176 -87 -308 -256
-353 -449 l-17 -73 -62 0 -62 0 -11 46 c-31 123 -122 234 -234 288 -40 19 -80
37 -89 40 -23 7 -22 22 3 170 29 175 121 526 136 526 2 0 20 -8 41 -19z m1977
-68 c84 -267 132 -544 151 -865 l7 -118 -259 0 -259 0 -17 77 c-30 128 -79
215 -183 318 -103 104 -190 153 -318 183 -76 17 -77 17 -77 48 0 27 6 34 41
49 49 23 122 101 135 146 l9 33 125 22 c199 34 460 115 577 178 15 8 31 15 34
16 4 0 19 -39 34 -87z m-958 32 c59 -39 66 -134 14 -186 -77 -76 -204 -23
-204 86 0 99 106 155 190 100z m52 -580 c232 -55 401 -270 401 -510 0 -303
-262 -546 -563 -522 -206 16 -382 151 -454 347 -24 64 -28 90 -28 175 0 155
48 269 157 376 127 125 311 175 487 134z m-1255 -216 c67 -25 133 -86 166
-154 36 -71 36 -198 1 -269 -54 -110 -142 -167 -267 -174 -73 -4 -88 -1 -143
23 -248 112 -247 455 3 571 67 31 162 33 240 3z m-550 -431 c53 -157 189 -281
338 -306 49 -9 48 -8 73 -167 21 -139 65 -326 112 -478 20 -64 34 -118 32
-120 -2 -2 -46 -29 -97 -61 l-92 -58 -34 30 c-77 68 -216 91 -316 53 l-50 -19
-61 91 c-74 113 -167 295 -215 419 -70 183 -134 488 -134 639 l0 49 211 -2
210 -3 23 -67z m1016 54 c0 -41 33 -142 72 -222 82 -168 255 -303 446 -347
l72 -17 0 -117 c0 -132 2 -129 -82 -129 -184 0 -541 -89 -762 -189 -38 -17
-70 -30 -71 -29 -8 10 -60 184 -85 284 -35 143 -74 378 -66 399 3 8 12 15 21
15 31 0 140 63 190 111 57 54 107 138 125 212 l12 47 64 0 c55 0 64 -3 64 -18z
m1850 -26 c0 -197 -57 -594 -117 -808 -15 -57 -16 -58 -53 -58 -48 0 -100 -22
-143 -60 l-35 -30 -68 26 c-150 56 -396 109 -559 119 -149 10 -135 -3 -135
134 l0 118 63 13 c242 47 457 255 513 496 9 38 18 75 20 82 3 9 63 12 259 12
l255 0 0 -44z m947 -53 c-4 -54 -9 -114 -13 -134 l-6 -37 -63 -1 c-269 -4
-480 -258 -436 -524 16 -96 61 -186 126 -252 l54 -55 -74 -99 c-40 -54 -100
-127 -133 -162 l-60 -64 -53 45 c-30 25 -80 65 -111 88 l-58 43 0 63 c0 83
-23 146 -72 196 l-40 42 31 122 c55 221 101 556 101 737 0 42 3 79 7 82 3 4
186 7 406 7 l400 0 -6 -97z m70 -346 c110 -56 173 -158 173 -281 0 -84 -23
-146 -76 -205 -66 -73 -139 -106 -234 -105 -127 0 -227 64 -282 179 -33 71
-38 162 -12 238 28 82 120 167 214 198 50 17 162 4 217 -24z m-2277 -1082 c0
-294 -3 -535 -7 -535 -30 1 -144 35 -197 59 -221 100 -436 338 -596 658 -33
67 -60 125 -60 131 0 11 166 82 289 122 145 47 406 96 529 99 l42 1 0 -535z
m420 509 c109 -17 288 -62 373 -94 57 -21 57 -22 57 -63 0 -63 17 -111 56
-163 l36 -47 -28 -51 c-184 -340 -461 -578 -721 -621 l-43 -7 0 537 0 538 88
-7 c48 -4 130 -14 182 -22z m758 -54 c32 -20 62 -71 62 -106 0 -31 -33 -85
-61 -99 -72 -38 -157 -3 -180 74 -21 71 40 151 116 151 17 0 45 -9 63 -20z
m-2128 -296 c95 -205 226 -399 365 -536 43 -43 75 -78 72 -78 -28 0 -222 76
-342 135 -116 57 -289 158 -324 191 -2 2 4 29 14 60 13 43 16 76 12 135 l-5
78 76 50 c43 27 80 50 85 50 4 1 25 -38 47 -85z m-429 31 c124 -81 110 -265
-26 -326 -51 -24 -99 -24 -150 0 -129 58 -152 232 -43 315 68 51 153 55 219
11z m2742 -82 c34 -26 78 -61 99 -79 l36 -32 -76 -62 c-170 -138 -395 -266
-602 -343 -163 -61 -163 -61 -73 31 44 44 106 116 139 159 59 78 184 278 184
294 0 5 19 9 43 9 57 0 107 15 148 44 19 13 35 25 37 25 2 1 31 -20 65 -46z"/>
<path d="M2350 2990 c-56 -26 -87 -54 -110 -100 -25 -50 -32 -104 -20 -149
l10 -40 -55 -52 c-77 -73 -115 -153 -122 -257 -5 -76 -4 -82 19 -105 29 -29
125 -53 266 -67 168 -16 409 18 461 64 21 19 23 27 19 101 -6 119 -58 219
-149 290 -25 20 -26 23 -16 72 34 167 -149 315 -303 243z m140 -150 c30 -30
27 -83 -6 -109 -35 -28 -69 -26 -99 4 -31 30 -32 71 -3 102 27 29 80 31 108 3z
m-3 -267 c53 14 54 14 92 -13 47 -35 81 -88 88 -139 l5 -38 -76 -12 c-98 -14
-224 -14 -321 0 -72 11 -75 13 -75 38 0 38 55 127 95 154 35 24 37 24 87 10
45 -14 57 -14 105 0z"/>
</g>
</svg>
