<?xml version="1.0" standalone="no"?>
<!DOCTYPE svg PUBLIC "-//W3C//DTD SVG 20010904//EN"
 "http://www.w3.org/TR/2001/REC-SVG-20010904/DTD/svg10.dtd">
<svg id='icon' version="1.0" xmlns="http://www.w3.org/2000/svg" viewBox="0 0 512.000000 512.000000" preserveAspectRatio="xMidYMid meet">
        <defs>
    <mask id="mask">
      <rect width="100%" height="100%" fill="white"/>
      <g transform="translate(0.000000,512.000000) scale(0.100000,-0.100000)" fill="black">
        <path d="M2325 4949 c-155 -15 -354 -58 -523 -115 -721 -240 -1276 -796 -1516
          -1516 -168 -503 -168 -1013 0 -1517 239 -718 797 -1276 1514 -1515 1022 -340
          2128 31 2738 917 560 814 560 1900 0 2714 -497 722 -1337 1114 -2213 1032z
          m436 -320 c482 -49 927 -258 1264 -595 343 -342 556 -791 605 -1273 50 -505
          -96 -1031 -401 -1440 -29 -39 -55 -71 -58 -71 -3 0 -19 33 -35 73 -100 248
          -166 342 -284 405 -32 17 -197 86 -367 152 -170 67 -312 126 -316 132 -4 6
          -10 42 -13 80 l-7 69 63 67 c104 111 167 217 212 359 34 110 96 551 96 689 0
          261 -97 492 -284 680 -199 198 -446 295 -721 281 -250 -13 -457 -106 -635
          -286 -184 -185 -280 -417 -280 -676 0 -109 56 -542 85 -656 35 -139 138 -311
          253 -422 l49 -49 -14 -66 c-7 -37 -17 -70 -21 -74 -4 -4 -154 -65 -332 -134
          -179 -70 -347 -141 -375 -159 -108 -69 -165 -155 -261 -392 -16 -40 -32 -73
          -36 -73 -3 0 -29 30 -56 68 -613 828 -531 1976 194 2706 438 442 1064 668
          1675 605z m-66 -724 c214 -45 398 -211 476 -432 36 -101 36 -233 0 -493 -18
          -124 -39 -250 -47 -280 -35 -122 -108 -232 -210 -311 -36 -28 -71 -64 -79 -80
          -21 -39 -18 -107 9 -296 25 -173 43 -221 101 -259 14 -9 190 -81 392 -160 269
          -105 374 -150 394 -171 18 -18 59 -103 112 -230 l84 -202 -65 -53 c-377 -306
          -891 -476 -1377 -455 -451 20 -869 172 -1209 442 l-83 66 84 202 c48 115 95
          214 110 229 17 18 77 47 172 84 656 255 650 253 684 331 21 49 77 333 77 391
          0 59 -26 99 -94 146 -96 66 -172 166 -215 281 -29 76 -91 504 -91 624 0 173
          64 325 190 451 157 157 368 220 585 175z"/>
      </g>
    </mask>
  </defs>
  <rect width="100%" height="100%" fill="#1c1c1c" mask="url(#mask)"/>
  <g transform="translate(0.000000,512.000000) scale(0.100000,-0.100000)" fill="none" stroke="white" stroke-width="30">
    <path d="M2325 4949 c-155 -15 -354 -58 -523 -115 -721 -240 -1276 -796 -1516
      -1516 -168 -503 -168 -1013 0 -1517 239 -718 797 -1276 1514 -1515 1022 -340
      2128 31 2738 917 560 814 560 1900 0 2714 -497 722 -1337 1114 -2213 1032z
      m436 -320 c482 -49 927 -258 1264 -595 343 -342 556 -791 605 -1273 50 -505
      -96 -1031 -401 -1440 -29 -39 -55 -71 -58 -71 -3 0 -19 33 -35 73 -100 248
      -166 342 -284 405 -32 17 -197 86 -367 152 -170 67 -312 126 -316 132 -4 6
      -10 42 -13 80 l-7 69 63 67 c104 111 167 217 212 359 34 110 96 551 96 689 0
      261 -97 492 -284 680 -199 198 -446 295 -721 281 -250 -13 -457 -106 -635
      -286 -184 -185 -280 -417 -280 -676 0 -109 56 -542 85 -656 35 -139 138 -311
      253 -422 l49 -49 -14 -66 c-7 -37 -17 -70 -21 -74 -4 -4 -154 -65 -332 -134
      -179 -70 -347 -141 -375 -159 -108 -69 -165 -155 -261 -392 -16 -40 -32 -73
      -36 -73 -3 0 -29 30 -56 68 -613 828 -531 1976 194 2706 438 442 1064 668
      1675 605z m-66 -724 c214 -45 398 -211 476 -432 36 -101 36 -233 0 -493 -18
      -124 -39 -250 -47 -280 -35 -122 -108 -232 -210 -311 -36 -28 -71 -64 -79 -80
      -21 -39 -18 -107 9 -296 25 -173 43 -221 101 -259 14 -9 190 -81 392 -160 269
      -105 374 -150 394 -171 18 -18 59 -103 112 -230 l84 -202 -65 -53 c-377 -306
      -891 -476 -1377 -455 -451 20 -869 172 -1209 442 l-83 66 84 202 c48 115 95
      214 110 229 17 18 77 47 172 84 656 255 650 253 684 331 21 49 77 333 77 391
      0 59 -26 99 -94 146 -96 66 -172 166 -215 281 -29 76 -91 504 -91 624 0 173
      64 325 190 451 157 157 368 220 585 175z"/>
  </g>
        </svg>