<?xml version="1.0" standalone="no"?>
<!DOCTYPE svg PUBLIC "-//W3C//DTD SVG 20010904//EN"
 "http://www.w3.org/TR/2001/REC-SVG-20010904/DTD/svg10.dtd">
<svg version="1.0" xmlns="http://www.w3.org/2000/svg"
 width="512.000000pt" height="512.000000pt" viewBox="0 0 512.000000 512.000000"
 preserveAspectRatio="xMidYMid meet">

<g transform="translate(0.000000,512.000000) scale(0.100000,-0.100000)"
fill="#0f0" stroke="none">
<path d="M1670 4445 c-634 -78 -1195 -478 -1474 -1049 -399 -818 -168 -1796
556 -2347 617 -470 1460 -516 2125 -117 l82 49 98 -70 c158 -114 321 -186 513
-227 118 -25 381 -26 498 0 266 57 482 173 668 360 187 186 303 402 360 668
26 117 25 380 0 498 -57 265 -173 479 -360 666 -151 152 -315 254 -512 318
-142 47 -220 59 -392 61 l-164 3 -42 94 c-335 743 -1140 1193 -1956 1093z
m130 -995 l0 -790 -351 0 -351 0 6 75 c3 41 9 108 12 149 l6 74 55 11 c125 25
229 108 286 229 29 61 32 76 32 163 0 90 -2 99 -38 172 -27 55 -53 90 -91 124
l-54 47 40 81 c78 157 190 303 288 377 41 31 129 77 148 78 9 0 12 -165 12
-790z m309 747 c255 -150 478 -612 556 -1147 14 -98 35 -317 35 -367 l0 -23
-350 0 -350 0 0 791 0 791 28 -7 c15 -3 51 -21 81 -38z m-809 -109 c-33 -46
-87 -138 -121 -204 l-61 -121 -61 -7 c-134 -14 -252 -98 -315 -224 -35 -72
-37 -81 -37 -171 0 -87 3 -102 31 -162 37 -77 90 -140 149 -174 l41 -25 -7
-72 c-4 -40 -10 -117 -14 -170 l-7 -98 -348 0 -349 0 6 58 c3 31 16 111 29
178 99 503 434 944 896 1180 54 28 207 93 220 94 4 0 -20 -37 -52 -82z m1274
31 c346 -148 640 -417 819 -749 25 -47 53 -102 61 -122 l16 -36 -68 -22 c-146
-47 -326 -153 -450 -266 -71 -64 -63 -72 -82 91 -51 435 -208 873 -403 1118
-30 39 -30 39 -6 32 13 -4 64 -25 113 -46z m-1364 -593 c59 -39 85 -89 85
-166 0 -78 -26 -127 -88 -168 -56 -37 -153 -39 -210 -3 -76 47 -111 140 -88
229 14 51 75 117 123 131 53 16 135 6 178 -23z m2153 -977 c12 -6 120 -108
239 -227 l218 -217 222 222 c142 141 233 224 251 228 76 19 141 -46 122 -122
-4 -18 -87 -109 -228 -250 l-221 -223 221 -222 c141 -142 224 -233 228 -250
19 -77 -46 -142 -122 -123 -18 4 -109 87 -250 228 l-223 221 -222 -221 c-142
-141 -233 -224 -250 -228 -77 -19 -142 46 -123 123 4 17 87 108 228 250 l222
222 -217 218 c-119 119 -221 227 -227 239 -42 82 50 174 132 132z m-2459 -181
c13 -180 28 -305 52 -438 68 -378 210 -733 377 -943 30 -39 30 -39 6 -32 -64
21 -195 81 -277 128 -431 247 -732 663 -826 1141 -13 67 -26 147 -29 179 l-6
57 349 0 348 0 6 -92z m896 -61 l0 -154 -74 -36 c-89 -44 -146 -103 -189 -195
-29 -61 -32 -76 -32 -163 0 -90 2 -99 37 -171 45 -90 103 -148 194 -190 l64
-30 0 -245 0 -245 -27 7 c-91 22 -233 146 -325 285 -193 292 -308 693 -343
1198 l-7 92 351 0 351 0 0 -153z m790 71 c-49 -148 -64 -239 -64 -408 -1 -110
4 -184 18 -255 l18 -100 -37 -100 c-90 -240 -203 -418 -342 -536 -50 -43 -148
-99 -172 -99 -8 0 -11 78 -11 244 l0 244 64 30 c91 42 149 100 194 190 35 72
37 81 37 171 0 87 -3 102 -32 163 -43 92 -100 151 -189 195 l-74 36 0 154 0
153 309 0 308 0 -27 -82z m-580 -452 c59 -39 85 -89 85 -166 0 -78 -26 -127
-88 -168 -56 -37 -153 -39 -210 -3 -76 47 -111 140 -88 229 14 51 75 117 123
131 53 16 135 6 178 -23z m720 -671 c29 -44 61 -90 72 -102 l20 -21 -39 -25
c-74 -47 -250 -130 -322 -152 -21 -6 -19 -2 17 46 53 72 124 191 163 273 17
37 33 66 34 64 2 -2 27 -39 55 -83z"/>
</g>
</svg>
