<?xml version="1.0" standalone="no"?>
<!DOCTYPE svg PUBLIC "-//W3C//DTD SVG 20010904//EN"
 "http://www.w3.org/TR/2001/REC-SVG-20010904/DTD/svg10.dtd">
<svg version="1.0" xmlns="http://www.w3.org/2000/svg"
 width="512.000000pt" height="512.000000pt" viewBox="0 0 512.000000 512.000000"
 preserveAspectRatio="xMidYMid meet">

<g transform="translate(0.000000,512.000000) scale(0.100000,-0.100000)"
fill="#00ff00" stroke="none">
<path d="M369 4502 c-124 -33 -257 -139 -314 -253 -55 -108 -55 -97 -54 -1099
0 -841 2 -931 17 -991 46 -173 202 -321 380 -358 29 -6 101 -11 160 -11 l107
-1 115 -146 c63 -80 130 -157 149 -171 44 -34 141 -43 194 -17 19 9 106 88
192 176 l156 159 380 0 380 0 24 25 c32 31 32 69 0 100 l-24 25 -413 0 -413 0
-170 -175 c-135 -139 -175 -176 -196 -175 -21 0 -48 29 -152 158 -69 88 -134
165 -143 173 -12 10 -60 15 -173 19 -144 5 -161 8 -217 34 -73 33 -132 91
-171 166 l-28 55 0 960 0 960 28 55 c39 75 98 133 171 167 l61 28 1570 0 1570
0 56 -26 c79 -37 133 -90 171 -167 l33 -67 0 -950 0 -950 -33 -67 c-38 -77
-92 -130 -171 -167 l-56 -26 -533 -5 -534 -5 -19 -24 c-26 -32 -24 -67 6 -97
l25 -25 538 3 c527 3 538 4 596 26 166 62 280 192 321 364 22 94 22 1852 0
1946 -45 192 -196 342 -383 381 -37 8 -506 11 -1595 10 -1424 0 -1547 -1
-1608 -17z"/>
<path d="M4140 3660 c-11 -11 -20 -33 -20 -50 0 -17 9 -39 20 -50 19 -19 33
-20 243 -20 250 0 327 -8 395 -41 64 -31 128 -99 160 -167 22 -48 27 -75 32
-180 5 -115 7 -125 29 -143 32 -26 67 -24 96 6 23 22 25 31 25 127 0 210 -74
363 -224 460 -110 71 -151 78 -462 78 -261 0 -275 -1 -294 -20z"/>
<path d="M785 3346 c-93 -44 -145 -126 -145 -231 0 -190 202 -311 369 -220 87
48 133 125 132 226 0 68 -17 112 -62 164 -73 82 -195 108 -294 61z m176 -155
c52 -53 39 -135 -28 -166 -44 -21 -85 -12 -118 27 -58 68 -13 168 75 168 33 0
48 -6 71 -29z"/>
<path d="M1896 3355 c-56 -20 -107 -65 -136 -121 -20 -39 -25 -63 -25 -119 1
-83 23 -133 84 -188 139 -126 367 -52 411 134 46 192 -146 361 -334 294z m153
-161 c60 -50 46 -140 -26 -171 -44 -18 -77 -11 -114 27 -90 90 43 226 140 144z"/>
<path d="M2995 3358 c-121 -42 -194 -175 -165 -298 34 -141 177 -225 314 -186
158 46 234 231 152 370 -60 102 -192 152 -301 114z m134 -152 c31 -17 51 -54
51 -97 0 -35 -43 -84 -82 -94 -37 -10 -94 18 -113 55 -47 90 52 183 144 136z"/>
<path d="M4999 2801 l-24 -19 -5 -709 -5 -708 -26 -55 c-33 -69 -93 -131 -161
-167 -50 -26 -63 -27 -220 -33 -106 -3 -171 -9 -179 -17 -6 -6 -70 -85 -143
-174 -72 -90 -140 -165 -150 -167 -13 -3 -70 47 -197 174 l-179 179 -888 5
-887 5 -50 26 c-67 36 -130 102 -162 169 -22 46 -27 74 -32 173 -6 109 -8 120
-30 138 -32 26 -67 24 -96 -6 -23 -22 -25 -32 -25 -117 0 -51 7 -122 15 -157
42 -175 182 -322 350 -366 51 -13 176 -15 901 -15 l841 0 158 -161 c195 -199
243 -225 343 -184 50 22 67 39 198 203 l114 142 124 0 c96 0 139 5 189 20 77
24 172 85 223 143 46 53 101 166 114 236 6 33 10 315 10 733 l0 679 -25 24
c-29 30 -64 32 -96 6z"/>
</g>
</svg>
